<svg enable-background="new 0 0 512 512" viewBox="0 0 512 512" xmlns="http://www.w3.org/2000/svg"><path d="m384.809 97.787-30.673-30.673c-4.105-4.105-10.761-4.105-14.866 0l-23.552 23.552 45.539 45.539 23.552-23.552c4.105-4.105 4.105-10.761 0-14.866z" fill="#c86d5c"/><path d="m384.809 97.787-16.264-16.264c4.105 4.105 4.105 10.761 0 14.866l-23.553 23.553 16.264 16.264 23.553-23.553c4.105-4.105 4.105-10.761 0-14.866z" fill="#b24d40"/><path d="m439.272 154.464c38.313 14.267 61.466 12.016 61.466 12.016 14.267 14.267-13.16 64.824-61.26 112.924s-98.658 75.527-112.924 61.26c0 0 2.251-23.153-12.016-61.466z" fill="#999"/><path d="m204.035 293.427c59.193-81.743 125.472-118.091 125.472-118.091l-88.081-10.377c-105.33 135.395-181.642 189.094-216.953 208.824-15.553 8.69-21.52 28.157-13.276 43.951 6.461 12.377 17.746 24.55 37.454 29.318 10.706 2.59 22.001-.415 30.07-7.911 20.674-19.206 67.936-66.479 125.314-145.714z" fill="#c86d5c"/><path d="m204.035 293.427c59.193-81.743 125.472-118.091 125.472-118.091l-33.692-3.969c-23.773 16.496-67.181 51.05-107.337 106.503-57.378 79.235-104.64 126.508-125.314 145.714-8.069 7.496-19.365 10.501-30.07 7.911-7.195-1.741-13.264-4.472-18.388-7.836 6.802 10.175 17.407 19.392 33.945 23.393 10.706 2.59 22.001-.415 30.07-7.911 20.674-19.206 67.936-66.479 125.314-145.714z" fill="#b24d40"/><path d="m395.194 235.12c-24.452 24.452-53.555 39.546-80.656 44.077-11.19-30.039-32.549-69.408-73.113-114.238-10.325-11.404-9.941-28.88.937-39.76l42.911-42.911c10.88-10.88 28.356-11.263 39.76-.937 44.83 40.564 84.199 61.924 114.238 73.113-4.532 27.101-19.625 56.203-44.077 80.656z" fill="#b3b3b3"/><path d="m506.114 161.184c-1.57-1.57-3.78-2.357-5.999-2.165-.218.02-22.252 1.791-58.153-11.577-17.86-6.652-35.91-15.758-54.031-27.225l2.253-2.253c3.402-3.402 5.276-7.925 5.276-12.737 0-4.811-1.874-9.334-5.275-12.736l-30.673-30.673c-3.402-3.402-7.925-5.276-12.737-5.276-4.811 0-9.334 1.874-12.736 5.276l-9.689 9.689c-14.032-8.396-32.339-6.485-44.307 5.484l-42.911 42.911c-12.157 12.157-13.931 30.848-5.074 44.96-102.247 130.473-176.065 182.767-211.171 202.382-19.292 10.78-26.437 34.486-16.266 53.97 8.948 17.143 23.589 28.601 42.339 33.138 13.066 3.161 27.091-.56 36.938-9.706 7.465-6.935 19.585-18.644 34.929-35.041 2.83-3.024 2.672-7.771-.352-10.602-3.025-2.83-7.771-2.672-10.601.352-15.046 16.08-26.894 27.528-34.185 34.301-6.273 5.827-14.945 8.113-23.202 6.116-14.626-3.539-25.583-12.119-32.569-25.5-6.387-12.237-1.87-27.141 10.285-33.933 35.858-20.035 110.812-72.98 213.66-203.669 9.884 11.329 18.959 22.786 27.085 34.203-26.274 23.162-50.11 49.43-70.917 78.164-23.044 31.823-46.742 61.618-70.435 88.558-2.735 3.11-2.432 7.85.679 10.585 3.11 2.735 7.849 2.432 10.586-.679 24.004-27.293 48-57.462 71.321-89.666 19.794-27.334 42.417-52.353 67.318-74.485 12.823 19.613 22.885 39.155 30.082 58.476 13.367 35.896 11.596 57.932 11.579 58.121-.217 2.231.576 4.443 2.162 6.029 3.963 3.964 9.397 5.938 16.167 5.937 9.607 0 21.905-3.979 36.488-11.89 21.945-11.906 47.116-31.547 70.876-55.307 45.915-45.915 81.7-103.091 61.26-123.532zm-159.339-89.64c.466 0 1.362.114 2.129.882l30.673 30.673c.768.767.882 1.663.882 2.128s-.114 1.361-.882 2.129l-4.388 4.388c-12.974-8.981-26.007-19.195-38.882-30.46-.092-.081-.185-.163-.277-.244l8.615-8.615c.769-.767 1.664-.881 2.13-.881zm20.049 255.293c-17.953 9.738-28.036 10.944-32.569 9.728-.022-8.166-1.25-26.276-9.711-51.735.082-.02.165-.045.247-.065 23.03-5.587 44.289-17.288 62.517-32.288 4.521-3.721 9.051-7.834 13.263-12.046 7.276-7.276 13.933-15.143 19.783-23.38 2.398-3.377 1.605-8.059-1.772-10.458-3.376-2.398-8.059-1.605-10.458 1.772-5.366 7.555-11.476 14.775-18.16 21.46-16.742 16.742-37.056 30.417-59.662 37.789-3.483 1.136-10.839 2.992-10.963 3.02-10.698-26.728-26.523-53.737-47.195-80.666-7.944-10.349-16.157-20.511-25.085-30.034-7.658-8.458-7.359-21.381.681-29.421l42.911-42.911c8.041-8.04 20.964-8.339 29.423-.679 28.554 25.859 60.179 48.966 95.1 65.47 1.305.617 15.627 6.599 15.584 6.803-1.769 8.463-4.772 16.68-8.36 24.533-1.72 3.768-.06 8.217 3.708 9.938 3.769 1.72 8.217.06 9.938-3.708 2.644-5.793 4.923-11.757 6.793-17.844.782-2.548 1.498-5.119 2.124-7.709 25.463 8.463 43.575 9.691 51.741 9.713 1.216 4.534.009 14.618-9.728 32.569-11.236 20.711-29.961 44.656-52.728 67.422s-46.71 41.491-67.422 52.727z"/></svg>