<svg enable-background="new 0 0 512 512" viewBox="0 0 512 512" xmlns="http://www.w3.org/2000/svg"><path d="m187.923 443.734c-4.599 6.575-13.659 8.177-20.235 3.578l-27.294-19.092c-6.575-4.599-8.177-13.659-3.578-20.235l237.644-339.719c4.599-6.575 13.659-8.177 20.235-3.578l27.294 19.092c6.575 4.599 8.177 13.659 3.578 20.235z" fill="#5e3c16"/><path d="m409.628 75.135-14.934-10.447c-6.575-4.599-15.635-2.998-20.235 3.578l-237.643 339.718c-4.599 6.575-2.998 15.635 3.578 20.235l14.934 10.447z" fill="#a16125"/><path d="m512 146.748-78.576-19.063-75.213-52.615c-6.923-4.843-16.461-3.156-21.304 3.767l-45.194 64.606c-4.843 6.923-3.156 16.461 3.767 21.304l75.213 52.613 44.85 67.277s43.289-15.691 69.925-53.768c26.635-38.076 26.532-84.121 26.532-84.121z" fill="#797882"/><path d="m477.863 138.466c-2.115 16.675-8.15 44.656-25.393 69.305-17.255 24.668-41.487 39.929-56.424 47.627l19.493 29.24s43.289-15.691 69.925-53.768c26.636-38.078 26.533-84.122 26.533-84.122z" fill="#c6c5ca"/><path d="m337.696 194.262-42.446-29.693c.078.057.149.122.228.178l42.24 29.549z" fill="#7f7f7f"/><path d="m324.077 443.734c4.599 6.575 13.659 8.177 20.235 3.578l27.294-19.092c6.575-4.599 8.177-13.659 3.578-20.235l-237.644-339.719c-4.599-6.575-13.659-8.177-20.235-3.578l-27.294 19.092c-6.575 4.599-8.177 13.659-3.578 20.235z" fill="#7e4f1f"/><path d="m105.246 73.125-15.233 10.656c-6.575 4.599-8.177 13.659-3.578 20.235l11.841 16.926 225.802 322.791c4.599 6.575 13.659 8.177 20.235 3.578l15.233-10.656z" fill="#c27526"/><path d="m0 146.748 78.576-19.063 75.213-52.613c6.923-4.843 16.461-3.156 21.304 3.767l45.194 64.606c4.843 6.923 3.156 16.461-3.767 21.304l-75.213 52.613-44.85 67.278s-43.29-15.691-69.925-53.768c-26.635-38.079-26.532-84.124-26.532-84.124z" fill="#acacb2"/><path d="m63.045 206.281c-17.029-24.345-23.128-51.944-25.314-68.687l-37.731 9.154s-.103 46.045 26.533 84.122 69.925 53.768 69.925 53.768l21.138-31.708c-15.028-7.98-38.001-22.991-54.551-46.649z" fill="#e1e1e3"/></svg>