<svg enable-background="new 0 0 512.012 512.012" height="512" viewBox="0 0 512.012 512.012" width="512" xmlns="http://www.w3.org/2000/svg"><path d="m.006 0h512v361h-512z" fill="#e1e6f0"/><path d="m256.006 0h256v361h-256z" fill="#c3cbd9"/><path d="m451.006 106v150h-15c-16.5 0-30 13.5-30 30v15h-300v-15c0-16.5-13.5-30-30-30h-15v-150h15c16.5 0 30-13.5 30-30v-15h300v15c0 16.5 13.5 30 30 30z" fill="#f3f5f9"/><g fill="#e1e6f0"><path d="m451.006 106v150h-15c-16.5 0-30 13.5-30 30v15h-150v-240h150v15c0 16.5 13.5 30 30 30z"/><path d="m181.006 121h150v30h-150z"/><path d="m121.006 181h270v30h-270z"/></g><path d="m256.006 400.858h-45v111.154l45-27.012 45 27.012v-111.154z" fill="#ff7f40"/><path d="m301.006 400.858h-45v84.142l45 27.012z" fill="#f25a3c"/><circle cx="256.006" cy="316" fill="#ffdf40" r="105"/><path d="m361.006 316c0-57.891-47.109-105-105-105v210c57.89 0 105-47.109 105-105z" fill="#ffbe40"/><circle cx="256.006" cy="316" fill="#ffbe40" r="45"/><path d="m301.006 316c0-24.814-20.186-45-45-45v90c24.814 0 45-20.186 45-45z" fill="#ff9f40"/><g fill="#c3cbd9"><path d="m256.006 121h75v30h-75z"/><path d="m256.006 181h135v30h-135z"/></g></svg>