<svg enable-background="new 0 0 512.001 512.001" viewBox="0 0 512.001 512.001" xmlns="http://www.w3.org/2000/svg"><path d="m44.795 282.314 22.813-3.956 10.258-29.114-11.593 2.935z" fill="#3b484a"/><path d="m152.647 431.198-28.244 1.73-29.677 29.677c-6.751 6.751-17.737 6.751-24.488 0l-19.673-19.672c-4.416-4.416-6.093-10.76-4.479-16.741l22.481-49.098 3.469-31.436-31.354 3.551-28.729 62.741c-.296.648-.555 1.315-.776 1.994-6.325 19.504-1.248 40.627 13.251 55.125l19.672 19.673c21.163 21.163 55.598 21.163 76.762 0l29.677-29.677z" fill="#b3b3b3"/><g fill="#999"><path d="m443.29 8.414-.648-.16c-15.797-3.904-31.768 5.737-35.672 21.534l29.251 7.229z"/><path d="m503.498 84.9-.181-.643c-4.408-15.664-20.68-24.788-36.344-20.379l8.163 29.004z"/><path d="m214.686 148.096-.472.472c-11.506 11.506-11.506 30.162 0 41.668l13.153 13.153 21.306-21.306z"/><path d="m259.861 102.92-.472.472c-11.506 11.506-11.506 30.162 0 41.668l13.153 13.153 21.306-21.306z"/><path d="m305.036 57.745-.472.472c-11.506 11.506-11.506 30.162 0 41.668l13.153 13.153 21.306-21.306z"/><path d="m350.211 12.571-.472.472c-11.506 11.506-11.506 30.162 0 41.668l13.153 13.153 21.306-21.306z"/><path d="m473.15 178.121.472-.472c11.506-11.506 11.506-30.162 0-41.668l-13.153-13.153-21.306 21.306z"/><path d="m427.975 223.297.472-.472c11.506-11.506 11.506-30.162 0-41.668l-13.153-13.153-21.306 21.306z"/><path d="m382.8 268.472.472-.472c11.506-11.506 11.506-30.162 0-41.668l-13.153-13.153-21.306 21.306z"/><path d="m337.626 313.646.472-.472c11.506-11.506 11.506-30.162 0-41.668l-13.153-13.153-21.306 21.306z"/></g><path d="m456.528 50.499c-28.326-28.326-74.252-28.326-102.578 0l-160.818 160.818 14.307 88.27 88.27 14.307 160.818-160.818c28.327-28.325 28.327-74.251.001-102.577z" fill="#b3b3b3"/><path d="m432.986 74.041c-15.3-15.3-40.194-15.3-55.494 0l-160.818 160.816 7.209 48.286 48.286 7.209 160.818-160.818c15.299-15.299 15.299-40.193-.001-55.493z" fill="#d9d9d9"/><path d="m55.236 406.208 13.332-29.115 3.468-31.436-31.353 3.551-13.331 29.115z" fill="#999"/><path d="m129.316 480.288 21.224-21.223 2.107-27.867-28.244 1.73-21.223 21.224z" fill="#999"/><path d="m210.819 193.631-17.687 17.686 14.308 88.27 88.27 14.306 17.686-17.685z" fill="#999"/><path d="m234.36 217.171-17.686 17.686 7.21 48.286 48.286 7.21 17.685-17.686z" fill="#b3b3b3"/><path d="m193.132 211.317c-21.357-21.357-55.983-21.357-77.339 0l-86.579 86.579c-11.003 11.003-11.003 28.842 0 39.845l121.324 121.324 145.172-145.172z" fill="#faa330"/><path d="m53.226 321.906 86.579-86.579c21.357-21.357 55.983-21.357 77.339 0l-24.011-24.011c-21.357-21.357-55.983-21.357-77.339 0l-86.579 86.579c-11.003 11.003-11.003 28.842 0 39.845l24.011 24.011c-11.004-11.003-11.004-28.842 0-39.845z" fill="#f09318"/><path d="m44.795 282.314-22.512-114.24c-2.951-14.978.106-30.208 8.61-42.886 8.504-12.679 21.436-21.286 36.414-24.237 14.978-2.952 30.208.106 42.887 8.609s21.286 21.436 24.237 36.414l27.679 140.457c2.074 10.523-4.775 20.734-15.299 22.808-10.524 2.075-20.735-4.774-22.809-15.299l-27.681-140.456c-1.953-9.905-11.601-16.375-21.505-14.425-4.799.945-8.942 3.704-11.667 7.766-2.724 4.062-3.704 8.942-2.758 13.74l17.475 88.679z" fill="#3b484a"/><circle cx="393.75" cy="113.272" fill="#b3b3b3" r="14.823"/><path d="m220.047 337.606c-2.93-2.93-7.682-2.93-10.611 0l-53.251 53.252c-2.93 2.93-2.93 7.682 0 10.612 2.898 2.898 7.717 2.894 10.611 0l53.251-53.252c2.93-2.931 2.93-7.682 0-10.612z"/><path d="m177.328 332.553c-2.93-2.93-7.682-2.93-10.611 0l-34.419 34.419c-2.93 2.93-2.93 7.682 0 10.611 2.898 2.898 7.71 2.902 10.612 0l34.419-34.419c2.93-2.929 2.93-7.681-.001-10.611z"/><path d="m393.956 135.719c15.524 0 26.421-16.128 20.768-30.519-1.117-2.841-2.823-5.436-4.981-7.595-4.217-4.217-9.823-6.539-15.787-6.539-12.173 0-22.326 10.165-22.326 22.326 0 5.964 2.322 11.57 6.539 15.787s9.824 6.54 15.787 6.54zm-5.175-27.503c1.383-1.383 3.22-2.144 5.175-2.144 6.396 0 9.682 7.988 5.176 12.495-4.508 4.509-12.495 1.189-12.495-5.175 0-1.955.761-3.793 2.144-5.176z"/><path d="m402.013 21.951c-9.089.381-17.902 2.279-26.159 5.563 0 0-20.115-20.115-20.132-20.132-3.232-3.232-8.034-2.578-11.084.472-12.596 12.596-14.182 32.095-4.763 46.431l-13.799 13.799s-15.515-15.515-15.528-15.528c-3.223-3.222-8.053-2.558-11.084.472-6.982 6.982-10.827 16.265-10.827 26.139 0 7.323 2.12 14.32 6.061 20.295l-13.796 13.796s-15.519-15.519-15.528-15.528c-3.188-3.188-8.051-2.561-11.084.472-12.596 12.596-14.182 32.095-4.763 46.431l-13.799 13.799-15.528-15.529c-3.238-3.239-8.024-2.586-11.083.472-12.596 12.596-14.182 32.095-4.763 46.431l-11.333 11.333c-12.051-9.442-27.173-14.105-42.466-13.094 0 0-8.55-43.385-8.555-43.409-6.81-34.557-41.368-57.747-75.936-50.934-34.553 6.81-57.747 41.361-50.934 75.935l21.739 110.313-12.75 12.751c-6.739 6.738-10.45 15.698-10.45 25.229s3.711 18.489 10.45 25.229l7.78 7.78-26.564 58.008c-9.957 21.783-2.181 49.104 13.993 65.544 0 0 19.665 19.665 19.673 19.673 23.794 23.794 63.602 23.771 87.373 0l190.623-190.623s15.527 15.527 15.528 15.528c3.223 3.223 8.017 2.595 11.084-.472 12.596-12.596 14.182-32.095 4.763-46.431l13.799-13.799 15.528 15.528c1.465 1.465 3.386 2.198 5.305 2.198 2.287 0 4.2-1.091 5.778-2.669 12.596-12.596 14.182-32.095 4.763-46.431l13.799-13.799s15.505 15.505 15.528 15.528c3.204 3.204 8.079 2.532 11.084-.472 12.204-12.204 14.276-32.018 4.766-46.434l13.797-13.797s15.517 15.517 15.528 15.528c3.2 3.2 8.078 2.533 11.084-.472 14.184-14.184 14.4-37.118.664-51.581 4.245-10.712 6.101-22.159 5.549-33.513 0 0 20.364-5.732 20.39-5.739 4.398-1.238 6.17-5.771 5.009-9.899-4.467-15.872-19.094-26.957-35.568-26.957-1.478 0-2.953.104-4.422.282-2.573-3.632-5.466-7.105-8.716-10.356-5.062-5.062-10.694-9.343-16.735-12.825 0 0 5.466-22.118 5.475-22.154 2.18-8.816-8.937-10.333-15.02-10.333-14.742 0-27.892 8.785-33.744 21.951zm-96.009 47.286 9.459 9.459-9.769 9.769c-1.344-2.873-2.052-6.031-2.052-9.296.001-3.509.818-6.892 2.362-9.932zm-45.175 45.174 9.459 9.459-9.77 9.769c-1.344-2.873-2.052-6.03-2.052-9.296.002-3.509.82-6.891 2.363-9.932zm76.232 187.971-9.453-9.453 9.761-9.761c2.833 6.084 2.73 13.207-.308 19.214zm45.175-45.174-9.453-9.453 9.761-9.761c2.832 6.083 2.729 13.206-.308 19.214zm45.182-45.169-9.459-9.459 9.77-9.769c1.344 2.873 2.052 6.031 2.052 9.296-.002 3.509-.82 6.892-2.363 9.932zm-76.231-187.971 10.688 10.688c-.838.546-6.086 4.346-7.798 5.784-1.078.905-2.146 1.832-3.176 2.79-2.856-6.093-2.76-13.238.286-19.262zm-135.834 154.739c-2.832-6.083-2.729-13.206.309-19.214l9.452 9.452zm-185.503-12.067c-5.236-26.573 12.596-53.085 39.112-58.31 26.533-5.228 53.094 12.64 58.311 39.112 0 0 27.665 140.383 27.679 140.456 1.255 6.368-3.037 12.744-9.388 13.995-6.379 1.257-12.742-3.024-13.996-9.388l-27.679-140.457c-2.753-13.962-16.353-23.084-30.316-20.334-13.799 2.717-23.058 16.519-20.338 30.318l16.702 84.752-20.293 20.293c-.002.001-19.785-100.388-19.794-100.437zm52.863 67.367s-14.738-74.789-14.756-74.876c-1.142-5.791 2.739-11.555 8.514-12.693 5.847-1.152 11.54 2.668 12.694 8.513l11.952 60.652zm31.284 198.938s-24.342 24.342-24.371 24.371c-3.784 3.784-10.101 3.777-13.877 0l-19.673-19.673c-2.386-2.386-3.363-5.7-2.666-8.956l17.692-38.639zm1.765 50.507c-18.008 18.008-48.158 17.992-66.15 0 0 0-19.662-19.662-19.673-19.673-11.759-11.759-18.195-32.852-10.958-48.689l24.235-52.927 16.564 16.564-20.31 44.356c-3.73 8.185-.019 19.156 5.995 25.171 0 0 19.67 19.67 19.673 19.673 9.451 9.451 25.485 9.615 35.1 0l24.371-24.371 15.525 15.525c-.001 0-24.364 24.363-24.372 24.371zm34.983-34.982s-115.913-115.913-116.019-116.019c-7.972-7.972-7.963-21.271 0-29.234l69.885-69.885s12.232 62.071 12.233 62.075c2.806 14.242 17.149 24.065 31.621 21.211 14.398-2.839 24.05-17.211 21.211-31.621l-16.187-82.144c12.82-.317 25.331 4.572 34.545 13.785l97.271 97.271zm321.391-302.405c3.587 6.382 3.737 14.19.449 20.692l-9.462-9.462c.352-.365.684-.746 1.028-1.118 2.925-3.153 5.606-6.529 7.985-10.112zm7.047-75.403c5.811 1.09 10.938 4.508 14.207 9.361l-10.178 2.864c-.616-2.552-1.372-5.058-2.234-7.525-.011-.037-1.157-3.193-1.795-4.7zm-18.281-2.647c15.37 25.144 11.344 58.953-9.474 79.771l-155.513 155.513-12.93-12.93 19.312-19.312c2.93-2.93 2.93-7.682 0-10.611-2.93-2.93-7.682-2.93-10.611 0l-19.312 19.312-44.884-44.884 155.512-155.512c12.375-12.374 32.509-12.375 44.884 0s12.375 32.509 0 44.884l-115.21 115.211c-2.93 2.93-2.93 7.682 0 10.611 2.93 2.93 7.682 2.93 10.611 0l115.211-115.211c8.817-8.817 13.673-20.555 13.673-33.053s-4.856-24.236-13.673-33.053c-18.226-18.226-47.881-18.225-66.106 0l-155.513 155.512-12.93-12.93 155.512-155.511c.015-.015.03-.029.045-.043 19.216-19.215 49.337-24.375 73.878-12.702 11.443 5.441 20.988 14.256 27.518 24.938zm-26.751-53.049-2.745 11.107c-4.077-1.394-8.276-2.453-12.564-3.171 3.746-4.543 9.242-7.491 15.309-7.936z"/></svg>