<svg enable-background="new 0 0 512.001 512.001" viewBox="0 0 512.001 512.001" xmlns="http://www.w3.org/2000/svg"><path d="m86.25 405c-12.407 0-22.5-10.094-22.5-22.5v-45c0-4.143 3.358-7.5 7.5-7.5s7.5 3.357 7.5 7.5v45c0 4.136 3.364 7.5 7.5 7.5s7.5-3.364 7.5-7.5v-45c0-4.143 3.358-7.5 7.5-7.5s7.5 3.357 7.5 7.5v45c0 12.406-10.093 22.5-22.5 22.5z" fill="#85453d"/><path d="m86.25 285c-4.142 0-7.5 3.357-7.5 7.5s3.358 7.5 7.5 7.5h75v-15z" fill="#a45e43"/><path d="m251.25 322.5h-90l30 15h60c4.136 0 7.5 3.364 7.5 7.5 0 3.265-2.087 6.131-5.198 7.135l-79.609 25.729c-3.096 1.001-5.193 3.883-5.193 7.137v30c0 4.143 3.358 7.5 7.5 7.5s7.5-3.357 7.5-7.5v-24.542l74.412-24.049c9.324-3.009 15.588-11.612 15.588-21.409 0-12.407-10.092-22.501-22.5-22.501z" fill="#869e47"/><path d="m138.75 292.5v112.715l-43.726 65.104c-.831 1.236-1.274 2.692-1.274 4.182v30c0 4.143 3.358 7.5 7.5 7.5s7.5-3.357 7.5-7.5v-27.715l43.726-65.104c.831-1.236 1.274-2.692 1.274-4.182v-115z" fill="#9db55f"/><path d="m266.25 200h-120v-15h120c4.136 0 7.5-3.364 7.5-7.5h15c0 12.406-10.092 22.5-22.5 22.5z" fill="#ff8d7e"/><path d="m101.25 185c-45.491 0-82.5-37.01-82.5-82.5 0-4.143-3.358-7.5-7.5-7.5s-7.5 3.357-7.5 7.5c0 53.762 43.738 97.5 97.5 97.5h45v-15z" fill="#ffb4a9"/><path d="m131.25 262.5 30 75h30v-45z" fill="#869e47"/><path d="m86.25 360c-12.407 0-22.5-10.094-22.5-22.5v-30c0-12.406 10.093-22.5 22.5-22.5 4.142 0 7.5 3.357 7.5 7.5s-3.358 7.5-7.5 7.5c-4.136 0-7.5 3.364-7.5 7.5v30c0 4.136 3.364 7.5 7.5 7.5s7.5-3.364 7.5-7.5v-41.467c0-4.143 3.358-7.5 7.5-7.5s7.5 3.357 7.5 7.5v41.467c0 12.406-10.093 22.5-22.5 22.5z" fill="#a45e43"/><path d="m101.25 292.5c0 24.853 20.147 45 45 45h15v-75z" fill="#9db55f"/><path d="m171.25 172.5h-30l20 120h30v-100c0-11.045-8.954-20-20-20z" fill="#ff8d7e"/><path d="m141.25 172.5h-20c-11.046 0-20 8.954-20 20v100h60v-100c0-11.045-8.954-20-20-20z" fill="#ffb4a9"/><circle cx="131.25" cy="202.5" fill="#ff8d7e" r="7.5"/><circle cx="161.25" cy="202.5" fill="#ff6753" r="7.5"/><path d="m146.25 52.5v101l45-46v-10c0-24.852-20.147-45-45-45z" fill="#ff8d7e"/><path d="m146.25 52.5c-24.853 0-45 20.147-45 45v10l60 46v-56c0-24.852-6.716-45-15-45z" fill="#ffb4a9"/><path d="m164.959 107.5c-1.053-1.573-2.303-3.002-3.709-4.261l-15 69.261c24.853 0 45-20.147 45-45v-20z" fill="#ffcb63"/><path d="m161.25 127.5v-24.26c-3.981-3.566-9.235-5.739-15-5.739-7.801 0-14.672 3.971-18.709 10h-26.291v20c0 24.853 20.147 45 45 45 8.284-.001 15-20.148 15-45.001z" fill="#ffe2a8"/><path d="m221.25 270h-135c-4.142 0-7.5-3.357-7.5-7.5s3.358-7.5 7.5-7.5h135c12.407 0 22.5-10.094 22.5-22.5v-225c0-4.143 3.358-7.5 7.5-7.5s7.5 3.357 7.5 7.5v225c0 20.678-16.822 37.5-37.5 37.5z" fill="#a45e43"/><path d="m298.25 7.5v105l60 60h30l-30-165z" fill="#ffcb63"/><path d="m388.25 7.5h-30v165l60 60z" fill="#ffa754"/><path d="m478.25 7.5h-30l-30 210 30 287 40-287z" fill="#ff6753"/><path d="m388.25 7.5v407l30 30v60h30v-497z" fill="#ff8646"/><path d="m478.25 7.5v210l-30 30v257h60v-497z" fill="#ffa754"/><path d="m281.25 185c-4.142 0-7.5-3.357-7.5-7.5 0-4.136-3.364-7.5-7.5-7.5h-15c-4.142 0-7.5-3.357-7.5-7.5s3.358-7.5 7.5-7.5h15c12.407 0 22.5 10.094 22.5 22.5 0 4.143-3.358 7.5-7.5 7.5z" fill="#ff8d7e"/></svg>