<svg enable-background="new 0 0 512.001 512.001" height="512" viewBox="0 0 512.001 512.001" width="512" xmlns="http://www.w3.org/2000/svg"><g clip-rule="evenodd" fill-rule="evenodd"><path d="m365.612 346.68-25.653 44.42c-14.484 25.143-5.81 57.57 19.333 72.084 25.114 14.514 57.543 5.81 72.057-19.332l25.653-44.391c1.786-3.117 1.304-6.18-2.211-8.221l-80.986-46.742c-3.176-1.844-6.066-1.504-8.193 2.182z" fill="#e2d8ec"/><path d="m365.612 346.68-4.507 7.795 63.694 36.766c3.487 2.041 3.997 5.104 2.211 8.221l-25.653 44.391c-7.029 12.16-18.227 20.494-30.784 24.18 22.848 6.803 48.359-2.664 60.775-24.18l25.653-44.391c1.786-3.117 1.304-6.18-2.211-8.221l-80.986-46.742c-3.175-1.845-6.065-1.505-8.192 2.181z" fill="#d5c6e4"/><path d="m397.332 358.076-10.63 18.424c-5.386 9.326-2.154 21.373 7.172 26.76 9.326 5.385 21.373 2.182 26.76-7.172l10.658-18.426-3.94-2.268-10.12-12.074-15.987-2.977z" fill="#d5c6e4"/><path d="m504.482 211.693c-7.172-4.139-16.441-1.672-20.608 5.529l-82.63 143.121 26.107 15.051 82.63-143.121c4.167-7.171 1.672-16.441-5.499-20.58z" fill="#4a80aa"/><path d="m204.066 236.781c4.11-4.111 31.691-4.451 48.501 12.359 16.81 16.809 16.469 44.418 12.359 48.5-4.111 4.109-31.72 4.478-48.501-12.33-16.809-16.81-16.469-44.419-12.359-48.529zm197.632 9.326c-3.827-3.828-29.509-4.139-45.128 11.48-15.619 15.617-15.308 41.301-11.48 45.098 3.827 3.828 29.48 4.168 45.1-11.48 15.646-15.617 15.306-41.301 11.508-45.098zm-107.859-2.693c9.212 0 40.563-30.559 40.563-68.258 0-37.701-31.352-68.26-40.563-68.26-9.213 0-40.564 30.559-40.564 68.26.001 37.7 31.351 68.258 40.564 68.258z" fill="#ccf49f"/><path d="m204.066 236.781c4.11-4.111 31.691-4.451 48.501 12.359 16.81 16.809 16.469 44.418 12.359 48.5-2.75 2.75-15.932 3.826-29.424-.766 3.515-6.037 3.062-31.748-12.926-47.734-5.585-5.586-12.387-9.27-19.105-11.566.198-.312.397-.595.595-.793zm197.632 9.326c-2.693-2.666-16.016-3.629-29.141 1.359 2.892 6.605 1.984 29.396-12.359 43.738-4.705 4.707-10.317 7.967-15.959 10.121.256.594.539 1.049.851 1.359 3.827 3.828 29.48 4.168 45.1-11.48 15.646-15.616 15.306-41.3 11.508-45.097zm-107.859-2.693c9.212 0 40.563-30.559 40.563-68.258 0-37.701-31.352-68.26-40.563-68.26-3.147 0-8.845 3.545-14.995 9.695 11.934 11.934 25.54 33.703 25.54 58.564 0 24.859-13.607 46.602-25.54 58.535 6.151 6.152 11.849 9.724 14.995 9.724z" fill="#b3e59f"/></g><path d="m301.351 335.852 38.438-38.467c2.92-2.92 7.682-2.92 10.602 0 2.92 2.949 2.92 7.682 0 10.602l-49.039 49.068v23.527c0 4.139-3.373 7.512-7.512 7.512s-7.512-3.373-7.512-7.512v-50.91l-26.702-26.703c-2.92-2.947-2.92-7.682 0-10.629 2.919-2.92 7.682-2.92 10.602 0l16.1 16.129v-133.313c0-4.139 3.373-7.512 7.512-7.512s7.512 3.373 7.512 7.512v160.696z" fill="#78c2a4"/><path clip-rule="evenodd" d="m205.228 401.701c8.589.057 17.178 1.814 24.775 5.895 7.058 3.799 7.285 1.248 11.878-4.109 8.561-10.006 22.195-17.688 34.923-20.834 5.669-1.418 11.168-2.041 17.036-2.07 26.106.143 50.513 14.457 62.532 37.814 6.548 12.785 2.098 8.277 15.392 11.311 15.336 3.6 28.573 14.061 34.81 28.629 3.175 7.455 5.046 5.414 11.934 4.309 11.254-1.813 23.585 3.402 31.153 11.736 6.066 6.689 9.213 14.853 9.553 23.84.142 4.961-2.211 6.066-6.35 6.066h-389.482c-3.628.027-6.18-1.021-4.819-5.926 5.528-19.303 23.074-33.647 43.427-33.221 5.613.141 5.726-1.248 8.844-5.613 7.285-9.949 20.296-16.016 32.627-14.91 7.2.652 6.718-.965 9.014-7.199 7.881-21.489 30.303-35.577 52.753-35.718z" fill="#e59b6c" fill-rule="evenodd"/><path clip-rule="evenodd" d="m247.266 398.043c8.334-7.313 19.247-12.84 29.537-15.391 5.669-1.418 11.168-2.041 17.036-2.07 26.106.143 50.513 14.457 62.532 37.814 6.548 12.785 2.098 8.277 15.392 11.311 15.336 3.6 28.573 14.061 34.81 28.629 3.175 7.455 5.046 5.414 11.934 4.309 11.254-1.813 23.585 3.402 31.153 11.736 6.066 6.689 9.213 14.853 9.553 23.84.142 4.961-2.211 6.066-6.35 6.066h-29.99c4.11 0 6.491-.965 6.35-5.301-.341-7.824-3.516-14.967-9.553-20.779-7.569-7.285-19.928-11.848-31.182-10.262-6.859.965-8.73 2.75-11.934-3.74-6.236-12.728-19.474-21.855-34.781-25.002-13.294-2.637-8.844 1.275-15.421-9.865-12.019-20.408-36.397-32.881-62.504-32.994-5.697 0-11.055.537-16.582 1.699z" fill="#d68756" fill-rule="evenodd"/><path d="m137.877 481.637c-4.139 0-7.483-3.344-7.483-7.482 0-4.168 3.345-7.512 7.483-7.512h29.452c4.139 0 7.512 3.344 7.512 7.512 0 4.139-3.374 7.482-7.512 7.482zm139.096-60.008c-4.139 0-7.483-3.346-7.483-7.484 0-4.139 3.345-7.512 7.483-7.512h25.2c4.138 0 7.483 3.373 7.483 7.512s-3.346 7.484-7.483 7.484zm-92.098 30.018c-4.139 0-7.483-3.373-7.483-7.512s3.345-7.483 7.483-7.483h25.2c4.139 0 7.484 3.344 7.484 7.483s-3.345 7.512-7.484 7.512zm118.998 0c-4.139 0-7.483-3.373-7.483-7.512s3.345-7.483 7.483-7.483h25.2c4.139 0 7.512 3.344 7.512 7.483s-3.373 7.512-7.512 7.512zm-59.499 0c-4.139 0-7.483-3.373-7.483-7.512s3.345-7.483 7.483-7.483h25.2c4.139 0 7.512 3.344 7.512 7.483s-3.373 7.512-7.512 7.512zm102.247 29.99c-4.139 0-7.513-3.344-7.513-7.482 0-4.168 3.374-7.512 7.513-7.512h29.451c4.139 0 7.513 3.344 7.513 7.512 0 4.139-3.374 7.482-7.513 7.482zm-69.591 0c-4.139 0-7.483-3.344-7.483-7.482 0-4.168 3.345-7.512 7.483-7.512h29.452c4.167 0 7.512 3.344 7.512 7.512 0 4.139-3.345 7.482-7.512 7.482zm-69.563 0c-4.139 0-7.512-3.344-7.512-7.482 0-4.168 3.373-7.512 7.512-7.512h29.452c4.139 0 7.483 3.344 7.483 7.512 0 4.139-3.345 7.482-7.483 7.482z" fill="#c47443"/><path clip-rule="evenodd" d="m211.493 165.434h-82.347l-33.165 33.164h115.512c3.288 0 5.981-2.721 5.981-6.01v-21.174c0-3.289-2.693-5.98-5.981-5.98z" fill="#da4a54" fill-rule="evenodd"/><path clip-rule="evenodd" d="m211.493 165.434h-82.347 52.328c3.317 0 6.01 2.691 6.01 5.98v21.174c0 3.289-2.693 6.01-6.01 6.01h30.019c3.288 0 5.981-2.721 5.981-6.01v-21.174c0-3.289-2.693-5.98-5.981-5.98z" fill="#d82e3d" fill-rule="evenodd"/><path d="m31.039 113.02c1.02 3.771-1.219 7.654-4.989 8.674-3.799.992-7.682-1.246-8.674-5.016l-15.874-59.047c-2.126-7.938-.822-16.043 3.033-22.678 3.827-6.633 10.176-11.82 18.113-13.945 7.399-1.9 16.696-1.049 23.131 3.287 6.435 3.885 11.452 10.121 13.521 17.859l8.136 30.189c.992 3.797-1.247 7.682-5.017 8.674-3.77 1.02-7.653-1.219-8.674-5.018l-8.022-29.793c-1.446-4.365-3.09-7.285-7.143-9.75-8.079-4.111-17.093-2.58-21.827 5.584-2.013 3.486-2.693 7.766-1.559 11.934z" fill="#4a80aa"/><g clip-rule="evenodd" fill-rule="evenodd"><path d="m175.238 124.33-82.063 82.063c-6.463 6.463-17.008 6.463-23.471 0l-64.857-64.856c-6.463-6.463-6.463-17.008 0-23.471l82.063-82.064z" fill="#dd636e"/><path d="m175.238 124.33-82.063 82.063c-6.463 6.463-17.008 6.463-23.471 0l-3.26-3.26 74.551-74.551c2.608-2.607 2.976-5.527 0-8.504l-69.08-69.08 14.995-14.996z" fill="#da4a54"/><path d="m110.353 12.561 88.328 88.328c6.463 6.434 6.463 16.979 0 23.441-6.435 6.436-16.98 6.436-23.442 0l-88.329-88.328c-6.435-6.463-6.435-17.008 0-23.441 6.463-6.463 17.008-6.463 23.443 0z" fill="#da4a54"/><path d="m110.353 12.561 88.328 88.328c6.463 6.434 6.463 16.979 0 23.441-6.435 6.436-16.98 6.436-23.442 0l-3.742-3.742c3.43-6.293 2.523-14.398-2.806-19.699l-84.587-84.586c.737-1.361 1.672-2.609 2.806-3.742 6.463-6.463 17.008-6.463 23.443 0z" fill="#d82e3d"/></g><path d="m74.976 104.998c-2.948-2.92-2.948-7.654 0-10.602 2.92-2.92 7.682-2.92 10.602 0l31.266 31.266c2.92 2.949 2.92 7.682 0 10.602-2.919 2.949-7.682 2.949-10.602 0zm-23.471 23.471c-2.92-2.947-2.92-7.682 0-10.602 2.948-2.947 7.682-2.947 10.63 0l31.266 31.266c2.919 2.92 2.919 7.654 0 10.602-2.948 2.92-7.682 2.92-10.63 0z" fill="#d82e3d"/><path clip-rule="evenodd" d="m389.82 371.059 7.512-12.983 33.959 19.586-7.511 13.012z" fill="#c6b4da" fill-rule="evenodd"/></svg>