<svg  viewBox="0 0 511.996 511.996" xmlns="http://www.w3.org/2000/svg"><path d="m437.331 0h-256c-29.455 0-53.333 23.878-53.333 53.333l.192 138.667h39.893l-9.365-9.365c-12.501-12.495-12.506-32.758-.011-45.259s32.758-12.506 45.259-.011l64 64c12.501 12.493 12.507 32.754.014 45.255-.005.005-.01.01-.014.015l-64 64c-12.278 12.712-32.536 13.064-45.248.786s-13.064-32.536-.786-45.248c.257-.267.52-.529.786-.786l9.365-9.387h-39.808l.213 156.373c-.003 5.702 2.426 11.134 6.677 14.933 12.011 12.781 28.632 20.231 46.165 20.693h256c5.891 0 10.667-4.776 10.667-10.667v-426.665c.001-5.891-4.775-10.667-10.666-10.667z" fill="#546e7a"/><path d="m444.606 0c-6.243-.009-12.422 1.262-18.155 3.733l-121.195 51.926c-16.951 7.247-27.94 23.912-27.925 42.347v367.936c.002 25.438 20.626 46.057 46.063 46.054 6.24-.001 12.415-1.269 18.15-3.729l121.216-51.947c16.935-7.251 27.913-23.903 27.904-42.325v-367.936c-.035-25.423-20.635-46.024-46.058-46.059z" fill="#607d8b"/><path d="m330.664 298.667c-5.891 0-10.667-4.776-10.667-10.667v-42.667c0-5.891 4.776-10.667 10.667-10.667s10.667 4.776 10.667 10.667v42.667c0 5.891-4.775 10.667-10.667 10.667z" fill="#455a64"/><path d="m255.187 228.075c1.649-3.989.731-8.579-2.325-11.627l-64-64c-4.237-4.092-10.99-3.975-15.083.262-3.992 4.134-3.992 10.687 0 14.82l45.803 45.803h-187.584c-5.891 0-10.667 4.776-10.667 10.667s4.776 10.667 10.667 10.667h187.584l-45.803 45.781c-4.237 4.092-4.355 10.845-.262 15.083s10.845 4.355 15.083.262c.089-.086.176-.173.262-.262l64-64c.995-.988 1.785-2.163 2.325-3.456z" fill="#ffc107"/></svg>