<svg enable-background="new 0 0 512 512" height="512" viewBox="0 0 512 512" width="512" xmlns="http://www.w3.org/2000/svg"><path d="m128 96.5h58.8c37.7 0 68.3 30.6 68.3 68.3v11.2h-58.8c-37.7 0-68.3-30.6-68.3-68.3z" fill="#027226"/><path d="m319.5 144h-64.3v-12.2c0-41.3 33.4-74.7 74.7-74.7h64.3v12.2c0 41.3-33.5 74.7-74.7 74.7z" fill="#026a23"/><path d="m255.6 294.2c-4.4 0-8-3.6-8-8l.4-142.9c0-4.4 3.6-8 8-8s8 3.6 8 8l-.4 142.9c0 4.4-3.6 8-8 8z" fill="#027226"/><path d="m196.7 245.6c17.4 0 33.9 8.2 44.3 22.2l13.8 18.4 13.8-18.4c10.5-13.9 26.9-22.2 44.3-22.2 25.4 0 47.6 17.3 53.7 42 6 24.1-1.6 49.6-19.9 66.4l-91.9 84.2-91.9-84.2c-18.3-16.8-26-42.3-19.9-66.4 6.1-24.7 28.2-42 53.7-42z" fill="#cb2527"/><path d="m165.4 344.4c-17 0-33.1 7.7-43.7 21-12.4 15.4-19.1 34.6-19.1 54.4v14.3l-9 53.9h143.6l18-9 80.8-26.9 89.3-105.5c5.9-7 8.2-16.5 5.9-25.4-3.2-12.7-14.6-21.7-27.8-21.7-8.7 0-17 3.4-23.2 9.6l-35.3 35.3-53.9 18z" fill="#f6bb92"/><path d="m169.3 423.8h23l26.9-18h44.9c14.9 0 26.9-12.1 26.9-26.9 0-14.9-12.1-26.9-26.9-26.9h-80.1v64h-14.7c-2.2 0-3.9 1.7-3.9 3.9s1.8 3.9 3.9 3.9z" fill="#e6af89"/><g fill="#eeb436"><path d="m96 56c-4.4 0-8-3.6-8-8v-8c0-4.4 3.6-8 8-8s8 3.6 8 8v8c0 4.4-3.6 8-8 8z"/><path d="m80 72h-8c-4.4-.1-7.9-3.8-7.8-8.2s3.8-7.9 8.2-7.8h7.6c4.4 0 8 3.6 8 8s-3.6 8-8 8z"/><path d="m120 72h-8c-4.4 0-8-3.6-8-8s3.6-8 8-8h8c4.4 0 8 3.6 8 8s-3.6 8-8 8z"/><path d="m96 96c-4.4 0-8-3.6-8-8v-8c0-4.4 3.6-8 8-8s8 3.6 8 8v8c0 4.4-3.6 8-8 8z"/><path d="m352 192c-4.4 0-8-3.6-8-8v-8c0-4.4 3.6-8 8-8s8 3.6 8 8v8c0 4.4-3.6 8-8 8z"/><path d="m336 208h-8c-4.4-.1-7.9-3.8-7.8-8.2s3.8-7.9 8.2-7.8h7.7c4.4 0 8 3.6 8 8s-3.7 8-8.1 8z"/><path d="m376 208h-8c-4.4 0-8-3.6-8-8s3.6-8 8-8h8c4.4 0 8 3.6 8 8s-3.6 8-8 8z"/><path d="m352 232c-4.4 0-8-3.6-8-8v-8c0-4.4 3.6-8 8-8s8 3.6 8 8v8c0 4.4-3.6 8-8 8z"/></g><path d="m179.8 328c-3 0-5.8-1.7-7.2-4.4-6.1-12.3-6.1-26.8 0-39.2 2-4 6.8-5.6 10.7-3.6 4 2 5.6 6.8 3.6 10.7-3.9 7.8-3.9 17 0 24.8 2 4 .4 8.8-3.6 10.7-1.1.7-2.3 1-3.5 1z" fill="#ea2b2d"/><path d="m165.4 416.2h26.9l26.9-18h44.9c14.9 0 26.9-12.1 26.9-26.9 0-14.9-12.1-26.9-26.9-26.9h-98.7z" fill="#f6bb92"/><path d="m120 96.5v11.1c0 42.1 34.2 76.3 76.3 76.3h51.5l-.2 79.4-.3-.4c-21-28-60.7-33.7-88.7-12.7-11.6 8.7-19.9 21.2-23.5 35.3-4.7 18.6-2.1 38.3 7.2 55-10.6 4.1-19.9 10.9-26.9 19.7-13.5 16.9-20.8 37.8-20.8 59.4v13.7l-8.9 53.2c-.7 4.4 2.2 8.5 6.6 9.2.4.1.9.1 1.3.1h143.6c1.2 0 2.5-.3 3.6-.8l17.4-8.7 80.2-26.8c1.4-.5 2.6-1.3 3.6-2.4l89.3-105.5c13.1-15.4 11.1-38.5-4.3-51.6-6.6-5.6-15-8.7-23.7-8.7-9.9 0-19.4 3.6-26.8 10.1-.2-5.4-.9-10.7-2.2-15.9-8.5-34-42.9-54.6-76.8-46.1-13.3 3.3-25.2 10.9-33.9 21.6l.4-109h55.5c45.7-.1 82.7-37.1 82.7-82.7v-12.2c0-4.4-3.6-8-8-8h-64.3c-40.9.1-75.6 29.9-81.8 70.3-14.4-19.4-37.1-30.9-61.3-30.9h-58.8c-4.4 0-8 3.6-8 8zm283.4 211c11.4 0 20.6 9.2 20.6 20.6 0 4.9-1.7 9.6-4.9 13.3l-87.8 103.8-78.7 26.2c-.4.1-.7.3-1 .4l-16.3 8.1h-132.3l7.4-44.5c.1-.4.1-.9.1-1.3v-14.3c0-18 6.1-35.4 17.3-49.4 9.1-11.4 22.9-18.1 37.5-18h98.7c10.5-.1 19 8.3 19.1 18.8s-8.3 19-18.8 19.1c-.1 0-.2 0-.3 0h-44.9c-1.6 0-3.1.5-4.4 1.3l-24.9 16.6h-24.5c-4.4 0-8 3.6-8 8s3.6 8 8 8h26.9c1.6 0 3.1-.5 4.4-1.3l24.9-16.6h42.5c19.3 0 34.9-15.6 34.9-34.9 0-1.1 0-2.1-.1-3.2l48.5-16.2c1.2-.4 2.2-1.1 3.1-1.9l35.3-35.3c4.8-4.7 11.1-7.3 17.7-7.3zm-128.5-34.9c15.7-20.9 45.4-25.2 66.3-9.5 8.7 6.5 14.9 15.9 17.5 26.4 2.5 9.8 2.4 20.1-.2 29.9l-18 18-46.6 15.6c-6.4-10.3-17.6-16.6-29.7-16.6h-98.7c-2.3 0-4.5.1-6.8.4-9.2-13.9-12-31.1-8-47.2 6.3-25.4 32.1-40.8 57.5-34.5 10.6 2.6 19.9 8.8 26.4 17.5l13.8 18.4c1.5 2 3.9 3.2 6.4 3.2h.4s.3 0 .4 0c3.7 0 6.9-2.5 7.8-6.1zm-11.7-140.8c0-36.8 29.9-66.7 66.7-66.7h56.3v4.2c0 36.8-29.9 66.7-66.7 66.7h-56.3zm-127.2-27.3h50.8c33.3 0 60.3 27 60.3 60.3v3.1h-50.8c-33.3 0-60.3-27-60.3-60.3z"/><path d="m96 56c4.4 0 8-3.6 8-8v-8c0-4.4-3.6-8-8-8s-8 3.6-8 8v8c0 4.4 3.6 8 8 8z"/><path d="m72 72h8c4.4 0 8-3.6 8-8s-3.6-8-8-8h-7.7c-4.4-.1-8.1 3.4-8.2 7.8s3.5 8.1 7.9 8.2z"/><path d="m112 72h8c4.4 0 8-3.6 8-8s-3.6-8-8-8h-8c-4.4 0-8 3.6-8 8s3.6 8 8 8z"/><path d="m104 88v-8c0-4.4-3.6-8-8-8s-8 3.6-8 8v8c0 4.4 3.6 8 8 8s8-3.6 8-8z"/><path d="m360 176c0-4.4-3.6-8-8-8s-8 3.6-8 8v8c0 4.4 3.6 8 8 8s8-3.6 8-8z"/><path d="m336 192h-7.7c-4.4-.1-8.1 3.4-8.2 7.8s3.4 8.1 7.8 8.2h8c4.4 0 8-3.6 8-8s-3.5-8-7.9-8z"/><path d="m368 208h8c4.4 0 8-3.6 8-8s-3.6-8-8-8h-8c-4.4 0-8 3.6-8 8s3.6 8 8 8z"/><path d="m352 232c4.4 0 8-3.6 8-8v-8c0-4.4-3.6-8-8-8s-8 3.6-8 8v8c0 4.4 3.6 8 8 8z"/><path d="m183.4 280.8c-4-2-8.8-.4-10.7 3.6-6.1 12.3-6.1 26.8 0 39.2 2 4 6.8 5.6 10.7 3.6 4-2 5.6-6.8 3.6-10.7-3.9-7.8-3.9-17 0-24.8 1.9-4.1.3-8.9-3.6-10.9z"/></svg>