<svg height="446pt" viewBox="-64 0 446 446.18184" width="446pt" xmlns="http://www.w3.org/2000/svg"><path d="m138.914062 446.183594h-27.136718c-2.210938 0-4-1.792969-4-4v-236.820313h35.136718v236.820313c0 2.207031-1.789062 4-4 4zm0 0" fill="#a56021"/><path d="m125.640625 439.035156v-233.671875h-17.863281v233.671875c0 3.949219 3.199218 7.148438 7.144531 7.148438h17.863281c-3.945312 0-7.144531-3.199219-7.144531-7.148438zm0 0" fill="#8c4c17"/><path d="m208.046875 256.125h-165.121094c-1.476562 0-2.820312.980469-3.476562 2.542969-5.453125 13.023437-28.847657 71.335937-38.71875 95.964843-2.054688 5.128907 1.105469 11.035157 5.898437 11.035157h237.4375c4.859375 0 8.015625-6.0625 5.832032-11.199219zm0 0" fill="#ccc033"/><path d="m110.90625 285.46875c.652344-1.566406 2-2.546875 3.472656-2.546875h105.070313l-11.402344-26.796875h-165.125c-1.476563 0-2.820313.980469-3.476563 2.542969-5.449218 13.023437-28.84375 71.335937-38.714843 95.964843-2.054688 5.128907 1.101562 11.035157 5.898437 11.035157h71.878906c11.253907-28.046875 27.90625-69.476563 32.398438-80.199219zm0 0" fill="#99af17"/><path d="m187.488281 151.003906h-123.984375c-1.585937 0-3.03125.980469-3.734375 2.546875-5.863281 13.023438-31.007812 71.332031-41.617187 95.964844-2.210938 5.125 1.1875 11.035156 6.339844 11.035156h201.707031c5.226562 0 8.621093-6.0625 6.269531-11.203125zm0 0" fill="#ccc033"/><path d="m120.507812 180.347656c.703126-1.566406 2.148438-2.546875 3.734376-2.546875h75.5l-12.253907-26.796875h-123.988281c-1.585938 0-3.027344.980469-3.734375 2.546875-5.859375 13.023438-31.003906 71.332031-41.613281 95.964844-2.210938 5.125 1.1875 11.035156 6.339844 11.035156h61.191406c12.097656-28.050781 29.996094-69.476562 34.824218-80.203125zm0 0" fill="#99af17"/><path d="m212.996094 151.46875-64.121094-114.332031-16.121094-32.675781c-2.917968-5.914063-11.398437-5.953126-14.375-.066407l-16.394531 32.441407-64.285156 114.632812c-1.804688 3.21875.449219 7.246094 4.054687 7.246094h167.1875c3.605469 0 5.859375-4.027344 4.054688-7.246094zm0 0" fill="#ccc033"/><path d="m80.574219 151.46875 64.285156-114.632812 1.957031-3.875-14.0625-28.5c-2.914062-5.917969-11.398437-5.957032-14.375-.070313l-16.394531 32.445313-64.285156 114.628906c-1.804688 3.21875.445312 7.246094 4.054687 7.246094h42.875c-3.609375.003906-5.859375-4.023438-4.054687-7.242188zm0 0" fill="#99af17"/><path d="m309.109375 233.289062c-1.050781-2.035156-3.152344-3.3125-5.441406-3.3125h-113.589844c-2.289063 0-4.390625 1.277344-5.441406 3.3125l-8.066407 15.59375c-1.125 2.175782-1.714843 4.589844-1.714843 7.042969v115.375c0 4.0625 1.617187 7.960938 4.488281 10.835938l60.769531 60.765625c3.578125 3.582031 9.378907 3.59375 12.972657.027344l61.273437-60.785157c2.898437-2.878906 4.53125-6.792969 4.53125-10.878906v-115.339844c0-2.453125-.585937-4.867187-1.714844-7.042969zm0 0" fill="#ffc34c"/><path d="m221.996094 382.136719c-2.875-2.875-4.488282-6.773438-4.488282-10.835938v-115.375c0-2.453125.585938-4.867187 1.714844-7.042969l8.0625-15.59375c1.054688-2.035156 3.152344-3.3125 5.445313-3.3125h-42c-2.292969 0-4.390625 1.277344-5.445313 3.3125l-8.0625 15.59375c-1.125 2.175782-1.714844 4.589844-1.714844 7.042969v115.375c0 4.0625 1.613282 7.960938 4.488282 10.835938l60.765625 60.765625c3.582031 3.582031 9.382812 3.59375 12.976562.027344l14.582031-14.46875zm0 0" fill="#ffa730"/><path d="m291.96875 291.058594c-10.179688-11.320313-28.890625-9.542969-45.09375 3.027344-16.207031-12.570313-34.917969-14.347657-45.097656-3.027344-12.089844 13.445312-7.566406 40.277344 10.105468 59.933594 6.726563 7.480468 14.386719 12.832031 21.960938 15.863281 3.84375 2.09375 8.28125 3.035156 13.03125 2.882812 4.746094.148438 9.1875-.792969 13.027344-2.882812 7.578125-3.03125 15.238281-8.382813 21.960937-15.863281 17.671875-19.65625 22.195313-46.488282 10.105469-59.933594zm0 0" fill="#ff624b"/><path d="m242.882812 350.988281c-17.671874-19.652343-22.195312-46.484375-10.105468-59.929687 1.164062-1.292969 2.441406-2.40625 3.808594-3.363282-13.296876-6.347656-26.734376-5.617187-34.808594 3.363282-12.089844 13.445312-7.566406 40.277344 10.105468 59.929687 6.726563 7.480469 14.386719 12.835938 21.960938 15.867188 3.839844 2.089843 8.28125 3.03125 13.027344 2.882812 4.75.148438 9.191406-.792969 13.03125-2.882812.824218-.328125 1.648437-.699219 2.46875-1.082031-6.757813-3.148438-13.496094-8.117188-19.488282-14.785157zm0 0" fill="#ff4b34"/><path d="m307.046875 280.746094c-3.3125 0-6-2.6875-6-6v-11.449219c0-3.3125 2.6875-6 6-6s6 2.6875 6 6v11.449219c0 3.3125-2.6875 6-6 6zm0 0" fill="#ffd551"/><path d="m307.046875 358.9375c-3.3125 0-6-2.6875-6-6v-58.972656c0-3.3125 2.6875-6 6-6s6 2.6875 6 6v58.972656c0 3.3125-2.6875 6-6 6zm0 0" fill="#ffd551"/><path d="m280.601562 395.996094c0 8.285156-6.714843 15-15 15-8.285156 0-15-6.714844-15-15s6.714844-15 15-15c8.285157 0 15 6.714844 15 15zm0 0" fill="#ffa730"/><path d="m129.097656 136.003906c0 8.285156-6.714844 15-15 15-8.28125 0-15-6.714844-15-15s6.71875-15 15-15c8.285156 0 15 6.714844 15 15zm0 0" fill="#99af17"/><path d="m186.253906 134.824219c-2.101562 0-4.140625-1.101563-5.242187-3.066407l-27.332031-48.8125c-1.617188-2.894531-.585938-6.550781 2.304687-8.167968 2.894531-1.621094 6.546875-.585938 8.167969 2.304687l27.332031 48.8125c1.617187 2.890625.585937 6.546875-2.304687 8.167969-.929688.515625-1.933594.761719-2.925782.761719zm0 0" fill="#eacf32"/></svg>