<svg enable-background="new 0 0 512.003 512.003" height="512" viewBox="0 0 512.003 512.003" width="512" xmlns="http://www.w3.org/2000/svg"><path d="m324.878 226.386 63.647-11.363 41.996-32.395c34.427-29.302 37.604-75.998 4.352-109.173-30.807-29.949-79.299-24.164-106.74 6.91l-44.458 34.932.496 71.283c18.255 7.418 32.929 21.742 40.707 39.806z" fill="#ff9f40"/><path d="m430.307 327.313-44.714-33.536-60.075-9.902c-7.52 18.73-22.284 33.721-40.92 41.42l4.772 47.915 38.633 56.792c35.2 41.785 83.067 32.038 109.963 3.458 25.397-26.985 32.212-71.241-7.659-106.147z" fill="#ff9f40"/><g fill="#ffbe40"><path d="m512.001 253.205c-.615-42.887-40.172-73.16-81.48-70.578l-105.643 43.759c3.915 9.091 6.123 19.091 6.123 29.617 0 9.869-2.02 19.241-5.484 27.872l104.789 43.438c42.276 3.549 81.695-24.263 81.695-74.108z"/><path d="m227.41 186.71 5.417-59.575-49.176-46.471c-28.228-32.276-76.198-37.033-107.62-6.376-33.475 33.389-27.501 80.588 5.237 108.342l54.374 37.539 51.428 6.318c7.71-17.978 22.238-32.299 40.34-39.777z"/><path d="m186.44 283.729-55.139 7.839-50.154 35.775c-31.571 27.924-36.019 76.738-6.053 107.562 31.826 31.908 79.151 29.398 108.558-5.453l36.156-51.118 7.026-53.218c-18.425-7.787-32.969-22.778-40.394-41.387z"/></g><g fill="#ffdf40"><path d="m181.001 256.003c0-10.486 2.183-20.451 6.068-29.515l-105.801-43.857c-42.068-2.659-80.647 28.806-81.266 71.79 0 46.902 37.885 76.384 81.145 72.922l105.293-43.614c-3.43-8.593-5.439-17.91-5.439-27.726z"/><path d="m256.001 181.003c9.979 0 19.462 2.04 28.171 5.577l43.962-106.216c3.333-53.069-34.367-80.045-72.133-80.362-38.448-.324-76.967 26.968-72.35 80.662l43.759 106.046c8.818-3.642 18.458-5.707 28.591-5.707z"/><path d="m256.001 331.003c-10.345 0-20.202-2.098-29.169-5.887l-43.182 104.335c-4.59 53.414 33.913 82.594 72.35 82.552 37.582-.042 74.894-28.874 72.001-82l-43.407-104.707c-8.817 3.643-18.458 5.707-28.593 5.707z"/></g><path d="m328.134 80.364c3.333-53.069-34.367-80.045-72.133-80.362v181c9.979 0 19.462 2.04 28.171 5.577z" fill="#ffbe40"/><path d="m328.002 430.002-43.407-104.707c-8.818 3.644-18.459 5.707-28.594 5.707v181c37.583-.041 74.894-28.873 72.001-82z" fill="#ffbe40"/><circle cx="256.001" cy="256.003" fill="#664333" r="135"/><path d="m391.001 256.003c0-74.443-60.557-135-135-135v270c74.444 0 135-60.557 135-135z" fill="#4d3127"/><path d="m181.003 241.004h29.997v29.997h-29.997z" fill="#805640" transform="matrix(.707 -.707 .707 .707 -123.614 213.576)"/><path d="m301.003 241.004h29.997v29.997h-29.997z" fill="#664333" transform="matrix(.707 -.707 .707 .707 -88.467 298.428)"/><path d="m271.003 181.004h29.997v29.997h-29.997z" fill="#664333" transform="matrix(.707 -.707 .707 .707 -54.827 259.642)"/><path d="m211.003 181.004h29.997v29.997h-29.997z" fill="#805640" transform="matrix(.707 -.707 .707 .707 -72.401 217.215)"/><path d="m211.003 301.004h29.997v29.997h-29.997z" fill="#805640" transform="matrix(.707 -.707 .707 .707 -157.254 252.362)"/><path d="m271.003 301.004h29.997v29.997h-29.997z" fill="#664333" transform="matrix(.707 -.707 .707 .707 -139.68 294.789)"/><path d="m241.003 241.004h29.997v29.997h-29.997z" fill="#805640" transform="matrix(.707 -.707 .707 .707 -106.04 256.002)"/><path d="m256.001 234.792v42.422l21.211-21.211z" fill="#664333"/></svg>