<svg enable-background="new 0 0 512 512" viewBox="0 0 512 512" xmlns="http://www.w3.org/2000/svg"><path d="m407.167 193.217c10.77-15.086 17.171-33.503 17.171-53.451 0-50.913-41.272-92.185-92.185-92.185-.754 0-1.485.095-2.235.113-15.725-24.174-42.93-40.194-73.918-40.194-35.949 0-66.818 21.545-80.547 52.4-55.093 14.392-95.808 64.352-95.808 123.955 0 32.771 12.394 62.575 32.617 85.247-.349 3.604-.553 7.251-.553 10.946 0 61.981 50.246 112.226 112.226 112.226 6.756 0 33.66-.603 40.081-1.755l2.717-27.776c15.879 8.606 34.066 13.498 53.396 13.498 61.981 0 112.226-50.245 112.226-112.226 0-26.852-9.457-51.482-25.188-70.798z" fill="#afd755"/><path d="m264.016 350.092c-12.862 3.318-27.104 3.207-42.326-3.983-20.615-9.737-35.553-29.525-37.576-52.234-.795-8.92.264-17.49 2.806-25.396 1-3.109-.287-6.412-2.812-8.483-19.706-16.163-32.318-40.649-32.318-68.125 0-35.656 21.203-66.285 51.658-80.169 3.178-1.449 5.227-4.608 4.875-8.083-.265-2.613-.42-5.257-.42-7.941 0-41.76 29.063-76.658 68.044-85.778-6.421-1.493-13.069-2.4-19.947-2.4-35.949 0-66.818 21.545-80.547 52.4-55.093 14.392-95.808 64.352-95.808 123.955 0 32.771 12.394 62.575 32.617 85.247-.349 3.604-.553 7.251-.553 10.946 0 61.981 50.246 112.226 112.226 112.226 6.756 0 33.66-.603 40.081-1.755v-24.496z" fill="#96be4b"/><path d="m247.984 352.194c-.257 0-.505-.036-.762-.039l-7.254 152.345h48.097l-7.098-149.063c-.254-5.34-5.599-9.19-10.603-7.309-6.965 2.619-14.498 4.066-22.38 4.066z" fill="#af6e5a"/><path d="m280.966 355.437c-.254-5.34-5.6-9.19-10.603-7.309-6.964 2.618-14.497 4.065-22.379 4.065-.257 0-.505-.036-.762-.039l-7.254 152.346h24.048v-130.496c0-3.451 2.208-6.514 5.481-7.605l11.804-3.934z" fill="#965a50"/><path d="m416.431 192.844c10.087-15.941 15.407-34.169 15.407-53.078 0-54.413-43.821-98.784-98.027-99.672-17.987-25.184-46.766-40.094-77.811-40.094-36.524 0-69.843 20.916-85.873 53.587-57.869 16.737-97.982 69.799-97.982 130.268 0 32.153 11.474 63.193 32.376 87.777-.209 2.886-.312 5.663-.312 8.416 0 66.017 53.709 119.726 119.726 119.726 4.601 0 9.209-.27 13.771-.797l-4.874 98.023h-8.896c-4.142 0-7.5 3.358-7.5 7.5s3.358 7.5 7.5 7.5h80.161c4.142 0 7.5-3.358 7.5-7.5s-3.358-7.5-7.5-7.5h-8.894l-5.803-117.262c9.983 2.645 20.282 4.004 30.729 4.004 66.017 0 119.726-53.708 119.726-119.726 0-26.02-8.217-50.702-23.424-71.172zm-168.581 304.156 6.93-139.34c6.356-.669 12.499-2.275 18.274-4.751l7.13 144.091zm72.279-128.258c-10.771 0-21.356-1.643-31.513-4.845l-.978-19.756c2.011-1.611 3.949-3.338 5.783-5.21 2.899-2.958 2.851-7.707-.107-10.606-2.959-2.898-7.708-2.851-10.606.107-9.22 9.41-21.552 14.591-34.724 14.591-7.302 0-14.318-1.577-20.854-4.686-3.743-1.78-8.215-.189-9.995 3.551-1.779 3.74-.189 8.215 3.551 9.995 6.078 2.891 12.473 4.75 19.084 5.598l-1.307 26.271c-4.796.67-9.665 1.021-14.528 1.021-57.746 0-104.726-46.98-104.726-104.726 0-3.284.169-6.627.518-10.222.202-2.083-.475-4.155-1.868-5.717-19.806-22.204-30.714-50.706-30.714-80.254 0-49.882 30.698-94.087 76.22-112.113-1.294 4.996-2.189 10.098-2.653 15.248-.372 4.125 2.671 7.771 6.797 8.143.229.021.456.031.682.031 3.838 0 7.11-2.931 7.461-6.828.771-8.551 2.943-16.947 6.356-24.809.104-.189.208-.378.297-.577 12.961-29.128 41.888-47.949 73.695-47.949 27.366 0 52.649 13.751 67.631 36.783 1.419 2.181 3.856 3.475 6.468 3.409.453-.011.901-.04 1.349-.072.233-.017.467-.04.705-.04 46.696 0 84.686 37.99 84.686 84.686 0 14.465-3.665 28.468-10.66 41.007-.75-.774-1.51-1.542-2.284-2.299-2.959-2.898-7.708-2.849-10.606.111-2.898 2.959-2.849 7.708.111 10.606 20.284 19.865 31.455 46.439 31.455 74.826 0 57.745-46.98 104.725-104.726 104.725z"/><path d="m223.936 280.564c-35.646 0-64.645-29-64.645-64.645 0-4.142-3.358-7.5-7.5-7.5s-7.5 3.358-7.5 7.5c0 43.917 35.729 79.645 79.645 79.645 4.142 0 7.5-3.358 7.5-7.5s-3.358-7.5-7.5-7.5z"/><path d="m328.145 80.161c-4.142 0-7.5 3.358-7.5 7.5s3.358 7.5 7.5 7.5c22.385 0 40.597 18.212 40.597 40.597 0 4.142 3.358 7.5 7.5 7.5s7.5-3.358 7.5-7.5c0-30.656-24.941-55.597-55.597-55.597z"/></svg>