<svg height="512" viewBox="0 0 64 64" width="512" xmlns="http://www.w3.org/2000/svg"><path d="m45.021 58.033s2.535-17.533 15.979-27.033c0 0-3.383 17.418-15.979 27.033z" fill="#8ec13f"/><path d="m43 29h4v32h-4z" fill="#c8d952"/><path d="m42.019 4.739a4.159 4.159 0 0 1 2.981-1.739c1.7 0 3.272 1.725 4.57 4.1l-2.5 5.975-3.266-1.586z" fill="#f98c96"/><path d="m21 59.909s11.965-19.17 30-24.909c0 0-12.712 18.707-30 24.909z" fill="#8ec13f"/><path d="m21.006 61s-13.665-6.633-18.006-19c0 0 13.377 7.225 18.006 19z" fill="#8ec13f"/><path d="m19 47h4v14h-4z" fill="#c8d952"/><path d="m19.849 31c.836-3.209 4.946-3.384 4.405-7.523a4.079 4.079 0 0 0 -2.022-3.155 2.655 2.655 0 0 0 -1.232-.322c-1.359 0-2.641 1.19-3.765 2.972-1.235 3.772 1.856 5.621 2.614 8.028z" fill="#f98c96"/><path d="m21 33c2 7 3.59 15 0 15s-13-8.1-13-15 2.41-12 6-12 5.1 5.362 7 12z" fill="#e4544f"/><path d="m33 34c0 7.18-7.306 14-12 14s-4-7-2-16c1.557-7.009 3.306-11 8-11s6 5.82 6 13z" fill="#e33e5c"/><path d="m44.249 29.962a7.178 7.178 0 0 0 1.224.014 8.019 8.019 0 0 0 7.527-7.976v-3a30.3 30.3 0 0 0 -3.43-11.9 19.48 19.48 0 0 0 -3.283 5.3z" fill="#d9176c"/><path d="m44.249 29.962c2.384-3.121 3.567-8.362 2.808-13.962a19.788 19.788 0 0 0 -5.038-11.261c-2.934 3.404-5.019 10.914-5.019 14.261v3a8.025 8.025 0 0 0 7.249 7.962z" fill="#db527d"/></svg>