<svg height="512" viewBox="0 0 128 128" width="512" xmlns="http://www.w3.org/2000/svg"><path d="m38.744 92.052 1.844-21.588 58.036 11.832-.678 7.939z" fill="#ffd203"/><path d="m91.765 83.226h12.127v6h-12.127z" fill="#fc4b00" transform="matrix(-.085 .996 -.996 -.085 192.068 -3.909)"/><path d="m19.139 67.321-7.508-24.45a18.35 18.35 0 0 1 4.576-18.4l12.593-12.594a18.39 18.39 0 0 1 26.006 26.008l-2.775 2.775-4.243-4.243 2.775-2.775a12.39 12.39 0 1 0 -17.522-17.522l-12.592 12.592a12.365 12.365 0 0 0 -3.083 12.4l7.509 24.45z" fill="#e43e00"/><path d="m45.846 29.451 32.309 32.309-32.723 36.121a9.812 9.812 0 0 1 -14.21.351l-21.848-21.848a9.811 9.811 0 0 1 .351-14.21z" fill="#fc4b00"/><path d="m37.337 42.008h50.522v6h-50.522z" fill="#ffd203" transform="matrix(.707 .707 -.707 .707 50.16 -31.081)"/><g fill="#eaeaf0"><path d="m114.181 103.117a3 3 0 0 1 -6 0c0-1.657 3-6.084 3-6.084s3 4.427 3 6.084z"/><path d="m121.5 118.5a3 3 0 0 1 -6 0c0-1.657 3-6.083 3-6.083s3 4.426 3 6.083z"/><path d="m100.861 118.5a3 3 0 0 0 6 0c0-1.657-3-6.083-3-6.083s-3 4.426-3 6.083z"/></g><g fill="#111b35"><path d="m100.3 94.273a1.751 1.751 0 0 0 1.743-1.6l1.033-12.083a1.75 1.75 0 0 0 -1.595-1.893l-5.978-.51a1.7 1.7 0 0 0 -1.276.405 1.741 1.741 0 0 0 -.566.914l-9.981-2.039a1.75 1.75 0 1 0 -.7 3.429l10.357 2.116-.48 5.626-37.738 1.162 11.15-12.31 8.031 1.64a1.842 1.842 0 0 0 .352.035 1.75 1.75 0 0 0 .348-3.47l-6-1.225 7.768-8.576.335.335a1.75 1.75 0 0 0 2.474 0l4.243-4.243a1.748 1.748 0 0 0 0-2.474l-24.576-24.575a20.134 20.134 0 0 0 -31.682-24.294l-1.251 1.257a1.75 1.75 0 0 0 2.475 2.474l1.251-1.252a16.632 16.632 0 0 1 26.622 19.23l-1.885-1.886a14.13 14.13 0 0 0 -22.974-15.583l-12.59 12.59a14.113 14.113 0 0 0 -3.51 14.15l3.064 10-2.046 1.853-3.418-11.119a16.608 16.608 0 0 1 4.144-16.649l.611-.61a1.75 1.75 0 0 0 -2.474-2.477l-.611.611a20.1 20.1 0 0 0 -5.013 20.152l3.893 12.684-5.307 4.807a11.572 11.572 0 0 0 -.41 16.742l21.85 21.851a11.455 11.455 0 0 0 8.168 3.389h.3a11.451 11.451 0 0 0 8.275-3.8l5.12-5.658 40.736-1.248a1.747 1.747 0 0 0 1.591 1.608l5.978.511c.049.001.101.003.149.003zm-21.961-31.756-33.25-33.25 1.768-1.767 33.249 33.25zm-59.296-21.917a10.623 10.623 0 0 1 2.644-10.65l12.59-12.59a10.628 10.628 0 0 1 17.758 10.368l-3.941-3.941a1.75 1.75 0 0 0 -2.474 0l-4.243 4.242a1.749 1.749 0 0 0 0 2.475l.33.33-20.081 18.19zm25.089 56.106a8.056 8.056 0 0 1 -11.674.287l-21.851-21.85a8.074 8.074 0 0 1 .293-11.676l33.29-30.155 30.1 30.1-24.422 26.968c-.04.036-5.736 6.326-5.736 6.326zm54.575-6.075-2.491-.213.735-8.6 2.49.213z"/><path d="m20.757 21.674a1.745 1.745 0 0 0 1.243-.513l2.453-2.461a1.75 1.75 0 0 0 -2.476-2.474l-2.458 2.459a1.751 1.751 0 0 0 1.238 2.987z"/><path d="m31.045 48.6-5.068 4.592a1.749 1.749 0 1 0 2.349 2.593l5.074-4.597a1.75 1.75 0 1 0 -2.35-2.593z"/><path d="m115.931 103.116c0-1.979-2.309-5.6-3.3-7.064a1.749 1.749 0 0 0 -2.9 0c-.993 1.465-3.3 5.085-3.3 7.064a4.75 4.75 0 0 0 9.5 0zm-4.75 1.25a1.249 1.249 0 0 1 -1.251-1.236 10.389 10.389 0 0 1 1.251-2.778 10.482 10.482 0 0 1 1.25 2.773 1.251 1.251 0 0 1 -1.25 1.241z"/><path d="m119.949 111.436a1.75 1.75 0 0 0 -2.9 0c-.992 1.463-3.3 5.084-3.3 7.064a4.75 4.75 0 0 0 9.5 0c.001-1.98-2.308-5.6-3.3-7.064zm-1.449 8.314a1.249 1.249 0 0 1 -1.25-1.236 10.356 10.356 0 0 1 1.25-2.779 10.463 10.463 0 0 1 1.25 2.774 1.251 1.251 0 0 1 -1.25 1.241z"/><path d="m103.861 110.667a1.748 1.748 0 0 0 -1.448.769c-.993 1.463-3.3 5.084-3.3 7.064a4.75 4.75 0 0 0 9.5 0c0-1.98-2.308-5.6-3.3-7.064a1.75 1.75 0 0 0 -1.452-.769zm0 9.083a1.252 1.252 0 0 1 -1.25-1.241 10.513 10.513 0 0 1 1.25-2.775 10.4 10.4 0 0 1 1.25 2.766 1.251 1.251 0 0 1 -1.25 1.25z"/></g></svg>