<svg enable-background="new 0 0 300 300" height="512" viewBox="0 0 300 300" width="512" xmlns="http://www.w3.org/2000/svg"><circle cx="134" cy="167.93" fill="#e5efef" r="92"/><g fill="#4c241d"><path d="m54 71.93c-2.209 0-4-1.791-4-4v-8c0-2.209 1.791-4 4-4s4 1.791 4 4v8c0 2.209-1.791 4-4 4z"/><path d="m54 95.93c-2.209 0-4-1.791-4-4v-8c0-2.209 1.791-4 4-4s4 1.791 4 4v8c0 2.209-1.791 4-4 4z"/><path d="m46 79.93h-8c-2.209 0-4-1.791-4-4s1.791-4 4-4h8c2.209 0 4 1.791 4 4s-1.791 4-4 4z"/><path d="m70 79.93h-8c-2.209 0-4-1.791-4-4s1.791-4 4-4h8c2.209 0 4 1.791 4 4s-1.791 4-4 4z"/><path d="m220 91.93c-7.719 0-14-6.281-14-14s6.281-14 14-14 14 6.281 14 14-6.281 14-14 14zm0-20c-3.309 0-6 2.691-6 6s2.691 6 6 6 6-2.691 6-6-2.691-6-6-6z"/><circle cx="94.664" cy="36.346" r="4.276"/><circle cx="242.664" cy="120.346" r="4.276"/></g><path d="m162.828 193.327c49.237-5.758 58.99-46.972 58.99-46.972-52.384.661-67.454 27.561-67.454 27.561 26.019-54.775 8.117-89.477 8.117-89.477s-31.556 22.998-32.846 83.625c0 0-1.416-30.801-47.948-54.869 0 0-9.753 41.215 31.682 68.429 0 0-26.9-15.07-47.287-2.485 0 0 19.852 26.459 47.507 19.947 0 0-18.436 4.342-24.288 29.071 0 0 28.85 6.827 42.945-15.951 2.391 26.679 31.241 33.507 31.241 33.507 5.852-24.729-8.683-36.873-8.683-36.873 21.803 18.216 51.408 3.461 51.408 3.461-12.583-20.39-43.384-18.974-43.384-18.974z" fill="#a9ba5a"/><path d="m163.492 249.709c-.305 0-.613-.035-.926-.107-.281-.066-25.197-6.227-32.494-28.215-16.371 16.387-41.406 10.727-41.691 10.66-1.031-.244-1.924-.889-2.482-1.791-.557-.902-.732-1.99-.488-3.023 2.68-11.32 7.801-18.756 12.891-23.586-20.971-3.205-34.711-21.168-35.416-22.109-.676-.898-.939-2.039-.73-3.145.209-1.104.873-2.068 1.828-2.66 10.072-6.217 21.365-6.414 30.795-4.725-24.1-26.893-17.07-58.363-16.982-58.736.283-1.197 1.104-2.199 2.223-2.713 1.121-.512 2.414-.48 3.508.082 24.744 12.799 37.273 27.504 43.615 38.943 6.561-47.564 31.781-66.502 32.984-67.379.945-.688 2.145-.926 3.277-.66 1.137.27 2.098 1.021 2.633 2.059.684 1.322 14.746 29.553-.711 75.018 10.797-7.385 28.586-14.916 56.441-15.268 1.289-.021 2.406.539 3.172 1.498.77.961 1.055 2.225.77 3.422-.086.373-7.902 31.658-41.5 44.896 9.188 2.713 19.191 7.953 25.41 18.025.59.957.754 2.117.445 3.197-.309 1.082-1.059 1.982-2.062 2.484-1.051.523-21.398 10.426-41.57 3.891 2.383 6.598 3.629 15.543.949 26.863-.436 1.841-2.076 3.079-3.889 3.079zm-31.246-41.505c.305 0 .613.035.922.107 1.674.396 2.908 1.82 3.062 3.535 1.598 17.83 16.797 25.811 24.188 28.658 2.773-19.086-7.965-28.416-8.176-28.596-.004-.002-.004-.002-.004-.002-1.695-1.418-1.918-3.939-.504-5.635 1.418-1.695 3.934-1.922 5.637-.506 0 .002.004.004.004.006 14.805 12.361 33.984 7.785 42.562 4.764-12.531-14.145-36.668-13.232-36.926-13.213-2.152.088-3.996-1.523-4.172-3.672-.172-2.146 1.383-4.047 3.523-4.297 35.688-4.174 49.406-28.152 53.793-38.814-44.547 2.363-58.176 25.111-58.316 25.352-1.07 1.857-3.43 2.547-5.328 1.555-1.902-.998-2.684-3.309-1.762-5.248 19.289-40.6 13.688-69.688 10.117-80.871-8.191 8.443-26.281 32.076-27.232 76.822-.047 2.156-1.795 3.887-3.951 3.914-.016 0-.033 0-.049 0-2.135 0-3.898-1.678-3.996-3.816-.014-.252-2.006-26.721-40.816-48.803-.959 11.471.395 38.902 30.742 58.836 1.799 1.182 2.338 3.574 1.225 5.414-1.117 1.84-3.488 2.469-5.371 1.422-.23-.129-21.426-11.725-38.918-4.744 6.346 6.547 21.467 19.211 40.174 14.82 2.125-.512 4.301.822 4.809 2.977.508 2.148-.826 4.303-2.977 4.809-.588.148-14.125 3.734-20.135 21.93 7.873.822 24.965.564 34.473-14.809.74-1.196 2.039-1.895 3.402-1.895z" fill="#4c241d"/><path d="m262 227.93c0-6.627-5.373-12-12-12-1.589 0-3.098.325-4.486.886.284-.918.486-1.872.486-2.886 0-5.523-4.477-10-10-10-3.717 0-6.923 2.052-8.647 5.062-2.331-.688-4.798-1.062-7.353-1.062-2.813 0-5.514.463-8.05 1.29-2.157-3.192-5.808-5.29-9.95-5.29-6.627 0-12 5.373-12 12 0 3.126 1.224 5.947 3.182 8.083-4.028.415-7.182 3.779-7.182 7.917 0 4.418 3.582 8 8 8 .245 0 .476-.051.716-.072.011.048.016.099.027.147-.25-.016-.489-.075-.743-.075-6.627 0-12 5.373-12 12s5.373 12 12 12h48c8.837 0 16-7.164 16-16 0-3.423-1.118-6.557-2.954-9.147 4.097-1.909 6.954-6.035 6.954-10.853z" fill="#efefd2"/><g fill="#4c241d"><path d="m242 267.93h-48c-8.824 0-16-7.178-16-16 0-5.227 2.52-9.877 6.406-12.799-1.512-2.006-2.406-4.5-2.406-7.201 0-4.092 2.051-7.725 5.234-9.885-.809-1.926-1.234-4-1.234-6.115 0-8.822 7.176-16 16-16 4.32 0 8.398 1.736 11.375 4.748 4.074-.924 8.285-.984 12.352-.195 2.621-2.861 6.344-4.553 10.273-4.553 7.043 0 12.887 5.225 13.859 12 8.914-.193 16.141 7.131 16.141 16 0 4.721-2.125 9.154-5.645 12.152 1.082 2.477 1.645 5.133 1.645 7.848 0 11.027-8.973 20-20 20zm-48.121-23.998c-4.293 0-7.879 3.588-7.879 7.998 0 4.412 3.59 8 8 8h48c6.617 0 12-5.383 12-12 0-2.426-.766-4.787-2.215-6.834-.688-.967-.91-2.189-.605-3.336.305-1.148 1.102-2.102 2.176-2.602 2.82-1.314 4.645-4.152 4.645-7.229 0-4.412-3.59-8-8-8-1.008 0-2.012.199-2.98.594-1.434.574-3.066.287-4.207-.758-1.137-1.041-1.574-2.645-1.121-4.121.211-.688.309-1.232.309-1.715 0-3.309-2.691-6-6-6-2.145 0-4.082 1.141-5.18 3.053-.922 1.605-2.82 2.371-4.602 1.846-4.223-1.246-8.766-1.197-13.031.193-1.676.555-3.551-.082-4.551-1.562-1.496-2.211-3.977-3.529-6.637-3.529-4.41 0-8 3.588-8 8 0 1.973.758 3.881 2.129 5.377 1.023 1.113 1.332 2.709.793 4.123-.535 1.414-1.824 2.406-3.328 2.561-2.047.211-3.594 1.904-3.594 3.939 0 2.205 1.793 4 4 4 2.008-.197 4.145 1.066 4.605 2.994.297 1.234 0 2.609-.816 3.58-.812.971-2.027 1.576-3.297 1.492-.098-.006-.512-.051-.609-.064z"/><path d="m121.523 261.54c-.305 0-.615-.035-.926-.107-2.148-.508-3.479-2.664-2.971-4.814l10.727-45.336c.51-2.15 2.666-3.467 4.814-2.971 2.148.508 3.479 2.664 2.971 4.814l-10.727 45.336c-.434 1.839-2.077 3.078-3.888 3.078z"/><path d="m230 251.93c-2.211 0-4-1.791-4-4 0-6.617 5.383-12 12-12 2.211 0 4 1.791 4 4s-1.789 4-4 4c-2.207 0-4 1.795-4 4 0 2.209-1.789 4-4 4z"/><path d="m215.168 256.647c-.203 0-.414-.016-.625-.049-2.18-.342-3.672-2.389-3.332-4.57.516-3.27-1.727-6.348-4.996-6.863-2.184-.344-3.676-2.391-3.332-4.574.344-2.182 2.375-3.686 4.574-3.328 7.625 1.201 12.855 8.381 11.66 16.004-.312 1.972-2.012 3.38-3.949 3.38z"/><path d="m232.992 230.92c-5.504 0-9.984-4.477-9.984-9.98 0-2.209 1.789-4 4-4s4 1.791 4 4c0 1.092.891 1.98 1.984 1.98 2.211 0 4 1.791 4 4s-1.789 4-4 4z"/></g></svg>