<svg xmlns="http://www.w3.org/2000/svg" viewBox="0 0 32 32"><path fill="#d6b5b0" d="M2,14H30a0,0,0,0,1,0,0V28a2,2,0,0,1-2,2H4a2,2,0,0,1-2-2V14A0,0,0,0,1,2,14Z"/><path fill="#6d6daa" d="M28,31H4a3,3,0,0,1-3-3V14a1,1,0,0,1,1-1H30a1,1,0,0,1,1,1V28A3,3,0,0,1,28,31ZM3,15V28a1,1,0,0,0,1,1H28a1,1,0,0,0,1-1V15Z"/><path fill="#ff9797" d="M16,26,2,14V28a2,2,0,0,0,2,2H28a2,2,0,0,0,2-2V14Z"/><path fill="#6d6daa" d="M28,31H4a3,3,0,0,1-3-3V14a1,1,0,0,1,1.65-.76L16,24.68,29.35,13.24a1,1,0,0,1,1.07-.15A1,1,0,0,1,31,14V28A3,3,0,0,1,28,31ZM3,16.17V28a1,1,0,0,0,1,1H28a1,1,0,0,0,1-1V16.17L16.65,26.76a1,1,0,0,1-1.3,0Z"/><polygon fill="#c4a19d" points="16 2 2 14 30 14 16 2"/><path fill="#6d6daa" d="M30,15H2a1,1,0,0,1-.65-1.76l14-12a1,1,0,0,1,1.3,0l14,12A1,1,0,0,1,30,15ZM4.7,13H27.3L16,3.32Z"/><polygon fill="#f4dab7" points="24 12 24 19.14 16 26 8 19.14 8 12 24 12"/><path fill="#6d6daa" d="M16,27a1,1,0,0,1-.65-.24l-8-6.86A1,1,0,0,1,7,19.14V12a1,1,0,0,1,1-1H24a1,1,0,0,1,1,1v7.14a1,1,0,0,1-.35.76l-8,6.86A1,1,0,0,1,16,27ZM9,18.68l7,6,7-6V13H9Z"/><path fill="#6d6daa" d="M21,17H11a1,1,0,0,1,0-2H21a1,1,0,0,1,0,2Z"/></svg>